<svg width="170" height="48" viewBox="0 0 170 48" fill="none" xmlns="http://www.w3.org/2000/svg">
<path fill-rule="evenodd" clip-rule="evenodd" d="M0 6.40551H7.57448V13.9683V27.1297H13.9773V6.40551H21.5517V0H0V6.40551ZM23.0481 1.55493L30.0229 8.80147L30.0245 8.81614C31.162 9.77451 31.9847 11.0531 32.3856 12.4856C32.7865 13.9181 32.747 15.4381 32.2724 16.8478C31.7977 18.2576 30.9097 19.4917 29.724 20.3898C28.5384 21.2878 27.1099 21.8082 25.6245 21.8831H20.5336V33.3135H13.756L9.07084 28.626H15.4818V7.90013H23.0481V1.55493ZM6.07857 12.4735L1.4977 7.90002H6.07857V12.4735ZM56.4756 7.91662C56.3076 7.98206 56.1278 8.01193 55.9476 8.00434H49.8659V25.9055C49.8659 26.2946 49.7114 26.6677 49.4363 26.9428C49.1613 27.2179 48.7882 27.3725 48.3992 27.3725C48.0103 27.3725 47.6372 27.2179 47.3622 26.9428C47.0871 26.6677 46.9326 26.2946 46.9326 25.9055V8.00434H40.8215C40.6414 8.01193 40.4616 7.98206 40.2936 7.91662C40.1255 7.85117 39.9729 7.75158 39.8453 7.62414C39.7178 7.49669 39.618 7.34416 39.5524 7.17619C39.4867 7.00822 39.4567 6.82845 39.464 6.64826C39.4564 6.46793 39.4863 6.28799 39.5519 6.11982C39.6174 5.95166 39.7171 5.79893 39.8447 5.6713C39.9723 5.54368 40.125 5.44394 40.2932 5.3784C40.4613 5.31286 40.6412 5.28295 40.8215 5.29055H55.9476C56.1279 5.28295 56.3078 5.31286 56.476 5.3784C56.6441 5.44394 56.7968 5.54368 56.9244 5.6713C57.052 5.79893 57.1517 5.95166 57.2173 6.11982C57.2828 6.28799 57.3127 6.46793 57.3051 6.64826C57.3125 6.82845 57.2824 7.00822 57.2168 7.17619C57.1511 7.34416 57.0514 7.49669 56.9238 7.62414C56.7962 7.75158 56.6436 7.85117 56.4756 7.91662ZM65.6458 13.6047C65.7773 13.0962 65.5654 12.6577 65.0103 12.2894C64.4551 11.921 63.6115 11.7363 62.4795 11.7352C61.3918 11.7241 60.32 11.9971 59.3702 12.5273C58.751 12.8721 58.1959 13.3209 57.7291 13.8541V13.3211C57.7291 12.8506 57.6112 12.4974 57.3755 12.2616C57.1397 12.0259 56.7867 11.908 56.3162 11.908C56.1255 11.8868 55.9324 11.9088 55.7513 11.9723C55.5701 12.0358 55.4056 12.1392 55.2698 12.2748C55.134 12.4105 55.0304 12.575 54.9667 12.7561C54.903 12.9372 54.8808 13.1303 54.9017 13.3211V25.9626C54.9017 26.4342 55.0245 26.7873 55.27 27.022C55.5581 27.2739 55.9344 27.4011 56.3162 27.3757C56.7877 27.3757 57.1408 27.2535 57.3755 27.009C57.627 26.7207 57.7542 26.3444 57.7291 25.9626V17.7055C57.7163 17.3094 57.7835 16.9148 57.9269 16.5454C58.0703 16.176 58.2868 15.8393 58.5635 15.5557C59.1186 14.9906 59.8791 14.6044 60.845 14.3968C61.8108 14.1893 62.8972 14.2077 64.1042 14.4522C64.3258 14.5084 64.5565 14.5184 64.7821 14.4816C64.9877 14.4451 65.179 14.352 65.3346 14.2126C65.5012 14.0489 65.6104 13.8356 65.6458 13.6047ZM72.9421 11.7922C74.412 11.7922 75.675 12.1182 76.7309 12.7701C77.778 13.4115 78.6173 14.3421 79.1477 15.4497C79.7239 16.6839 80.0093 18.0338 79.982 19.3957C79.9879 19.5615 79.9588 19.7266 79.8968 19.8805C79.8347 20.0344 79.7411 20.1735 79.6219 20.2888C79.4978 20.4068 79.3515 20.4989 79.1914 20.5596C79.0314 20.6203 78.8608 20.6485 78.6898 20.6425H67.9343C68.0534 21.4157 68.3476 22.1514 68.7944 22.7935C69.2412 23.4356 69.8288 23.967 70.5123 24.3473C71.3854 24.8298 72.3701 25.0738 73.3674 25.0547C73.9791 25.0488 74.5854 24.9385 75.16 24.7287C75.6894 24.5542 76.1898 24.3014 76.6446 23.9789C76.9092 23.7777 77.2298 23.6638 77.5621 23.653C77.8772 23.6382 78.1861 23.7443 78.4258 23.9496C78.5694 24.0623 78.6886 24.2031 78.776 24.3634C78.8634 24.5237 78.9173 24.7001 78.9342 24.8819C78.9407 25.0547 78.9025 25.2263 78.8231 25.38C78.7437 25.5336 78.6259 25.6641 78.4812 25.7588C77.763 26.3092 76.9546 26.7306 76.0921 27.004C74.968 27.3954 73.7754 27.5509 72.5886 27.4609C71.4017 27.3709 70.2462 27.0372 69.194 26.4808C68.0053 25.8372 67.0169 24.8785 66.3372 23.71C65.6346 22.4753 65.2782 21.0737 65.3057 19.6532C65.3057 18.108 65.6316 16.746 66.2835 15.567C66.9112 14.4123 67.8456 13.4534 68.9837 12.7962C70.1894 12.1127 71.5565 11.766 72.9421 11.7922ZM72.9421 14.2256C71.8644 14.2256 70.9453 14.4614 70.1848 14.933C69.4317 15.3974 68.8299 16.0707 68.4525 16.8709C68.2214 17.3505 68.0569 17.8594 67.9636 18.3835H77.3763C77.3012 17.7807 77.1307 17.1936 76.8711 16.6444C76.5314 15.8958 75.976 15.2657 75.276 14.8347C74.576 14.4038 73.7633 14.1917 72.9421 14.2256ZM93.4266 12.6004C92.3513 12.0328 91.1501 11.7457 89.9344 11.7659C88.7616 11.747 87.6034 12.0275 86.5692 12.5808C86.0413 12.8681 85.5559 13.2274 85.127 13.6484V13.3501C85.1231 13.0653 85.0364 12.7877 84.8774 12.5513C84.7185 12.3149 84.4941 12.1299 84.2318 12.019C83.9694 11.908 83.6804 11.8758 83.4001 11.9264C83.1198 11.977 82.8603 12.1081 82.6532 12.3037C82.5158 12.4399 82.4083 12.6034 82.3379 12.7836C82.2674 12.9638 82.2355 13.1568 82.2442 13.3501V25.9623C82.2485 26.2485 82.3364 26.5272 82.4971 26.7641C82.6579 27.0009 82.8844 27.1856 83.1487 27.2952C83.4131 27.4049 83.7037 27.4348 83.9849 27.3813C84.266 27.3278 84.5254 27.1932 84.731 26.994C84.8624 26.8571 84.9651 26.6953 85.0331 26.5182C85.1011 26.341 85.133 26.152 85.127 25.9623V17.9872C85.1161 17.3259 85.3139 16.678 85.6925 16.1356C86.0854 15.5851 86.6105 15.1423 87.2194 14.848C87.8884 14.5216 88.6246 14.3569 89.3689 14.3672C90.1644 14.3502 90.9531 14.5176 91.6732 14.8562C92.3447 15.1893 92.9011 15.7161 93.2702 16.3687C93.6656 17.0478 93.8639 17.9247 93.865 18.9994V25.9558C93.8585 26.1492 93.891 26.3419 93.9605 26.5225C94.03 26.7031 94.1351 26.8679 94.2696 27.007C94.4041 27.1461 94.5652 27.2567 94.7433 27.3323C94.9214 27.4078 95.1129 27.4467 95.3064 27.4467C95.4999 27.4467 95.6914 27.4078 95.8695 27.3323C96.0476 27.2567 96.2087 27.1461 96.3432 27.007C96.4777 26.8679 96.5828 26.7031 96.6523 26.5225C96.7218 26.3419 96.7543 26.1492 96.7478 25.9558V19.0059C96.7478 17.4412 96.4512 16.1215 95.858 15.0469C95.3035 14.0116 94.4584 13.1612 93.4266 12.6004ZM112.616 5.68638C112.899 5.4209 113.276 5.27847 113.664 5.29031C113.858 5.28142 114.052 5.31192 114.235 5.37998C114.417 5.44805 114.584 5.55227 114.725 5.68638C114.861 5.82332 114.968 5.98692 115.038 6.16696C115.109 6.34699 115.141 6.53961 115.134 6.73278V19.6269C115.156 21.0075 114.809 22.3689 114.128 23.5698C113.447 24.7707 112.457 25.7674 111.26 26.4562C110.039 27.1547 108.652 27.5116 107.245 27.4896C105.833 27.5106 104.441 27.1538 103.213 26.4562C102.035 25.7854 101.056 24.8148 100.374 23.643C99.6673 22.4242 99.305 21.0359 99.3265 19.6269C99.3029 18.2332 99.6337 16.8563 100.288 15.6255C100.901 14.4778 101.806 13.5124 102.912 12.827C104.392 11.9428 106.138 11.6123 107.838 11.8943C109.539 12.1764 111.085 13.0526 112.201 14.3672V6.73278C112.192 6.53893 112.225 6.34554 112.297 6.16522C112.368 5.98491 112.477 5.82174 112.616 5.68638ZM110.346 23.863C110.879 23.4478 111.324 22.9309 111.656 22.3423C112.102 21.5076 112.329 20.5733 112.316 19.6269C112.334 18.6806 112.106 17.7458 111.656 16.9131C111.329 16.3201 110.885 15.7992 110.352 15.3816C109.819 14.964 109.207 14.6583 108.552 14.4827C107.898 14.3071 107.215 14.2653 106.545 14.3597C105.874 14.4541 105.229 14.6829 104.649 15.0322C103.882 15.4864 103.249 16.1353 102.814 16.9131C102.355 17.7428 102.122 18.6788 102.139 19.6269C102.126 20.5751 102.359 21.5106 102.814 22.3423C103.243 23.1322 103.877 23.7916 104.649 24.251C105.233 24.59 105.879 24.8097 106.549 24.8972C107.219 24.9848 107.899 24.9384 108.551 24.7609C109.203 24.5833 109.813 24.2781 110.346 23.863ZM129.333 12.8271C128.097 12.1491 126.711 11.7937 125.302 11.7937C123.893 11.7937 122.506 12.1491 121.271 12.8271C120.1 13.5008 119.13 14.474 118.46 15.6468C117.762 16.87 117.396 18.2546 117.399 19.6629V32.5571C117.393 32.7486 117.427 32.9393 117.499 33.1171C117.57 33.2949 117.678 33.4561 117.815 33.5904C118.103 33.8537 118.479 33.9997 118.869 33.9997C119.259 33.9997 119.635 33.8537 119.923 33.5904C120.056 33.4539 120.16 33.2921 120.229 33.1145C120.298 32.937 120.33 32.7474 120.324 32.5571V24.9161C120.992 25.706 121.818 26.3468 122.749 26.797C123.835 27.3053 125.029 27.54 126.227 27.4807C127.424 27.4213 128.589 27.0696 129.62 26.4563C130.726 25.7714 131.632 24.8059 132.245 23.6578C132.898 22.4267 133.228 21.0499 133.205 19.6564C133.228 18.2759 132.881 16.9143 132.2 15.7133C131.519 14.5123 130.529 13.5157 129.333 12.8271ZM129.717 22.3571C129.287 23.1376 128.658 23.7908 127.895 24.2511C127.313 24.6013 126.666 24.8304 125.993 24.9246C125.32 25.0188 124.635 24.9762 123.978 24.7994C123.322 24.6226 122.708 24.3151 122.174 23.8955C121.639 23.4758 121.195 22.9526 120.867 22.3571C120.42 21.528 120.193 20.5982 120.207 19.6564C120.19 18.705 120.418 17.7652 120.867 16.9263C121.291 16.1413 121.921 15.4866 122.689 15.0324C123.482 14.577 124.381 14.3374 125.296 14.3374C126.211 14.3374 127.11 14.577 127.904 15.0324C128.664 15.4937 129.289 16.1469 129.717 16.9263C130.174 17.7626 130.406 18.7034 130.39 19.6564C130.404 20.5998 130.172 21.5305 129.717 22.3571ZM143.243 11.7937C144.666 11.7669 146.07 12.1131 147.318 12.7977C148.485 13.4492 149.452 14.4073 150.114 15.5686C150.793 16.7464 151.132 18.1085 151.132 19.6547C151.16 21.0717 150.813 22.4708 150.129 23.7115C149.474 24.8742 148.511 25.8332 147.345 26.4824C146.089 27.1687 144.675 27.5148 143.243 27.4864C141.694 27.4853 140.326 27.1506 139.14 26.4824C137.973 25.8309 137.006 24.8728 136.344 23.7115C135.649 22.4742 135.297 21.0736 135.325 19.6547C135.325 18.1096 135.665 16.7475 136.344 15.5686C137.006 14.4073 137.973 13.4492 139.14 12.7977C140.326 12.1284 141.694 11.7937 143.243 11.7937ZM145.883 24.2657C146.641 23.8203 147.261 23.1746 147.676 22.3995H147.678C148.123 21.5549 148.347 20.611 148.328 19.6563C148.345 18.697 148.121 17.7486 147.676 16.8986C147.265 16.1173 146.644 15.466 145.883 15.0176C145.075 14.5728 144.167 14.3395 143.244 14.3395C142.322 14.3395 141.414 14.5728 140.605 15.0176C139.843 15.4686 139.218 16.1189 138.798 16.8986C138.347 17.7466 138.119 18.6959 138.138 19.6563C138.118 20.6123 138.346 21.5571 138.798 22.3995C139.221 23.1729 139.846 23.8177 140.605 24.2657C141.414 24.7106 142.322 24.9438 143.244 24.9438C144.167 24.9438 145.075 24.7106 145.883 24.2657ZM168.828 15.6465C168.149 14.4771 167.175 13.5069 166.002 12.8333C164.767 12.1553 163.381 11.7999 161.972 11.7999C160.563 11.7999 159.177 12.1553 157.942 12.8333C156.769 13.504 155.795 14.475 155.121 15.6465C154.424 16.87 154.058 18.2543 154.06 19.6626V32.5567C154.055 32.7483 154.089 32.939 154.16 33.1168C154.232 33.2946 154.339 33.4557 154.476 33.5901C154.614 33.7253 154.778 33.8313 154.958 33.9016C155.138 33.9719 155.331 34.0051 155.524 33.9992C155.717 34.01 155.911 33.9803 156.092 33.912C156.273 33.8436 156.438 33.7382 156.576 33.6024C156.714 33.4666 156.822 33.3034 156.894 33.1233C156.965 32.9433 156.998 32.7503 156.99 32.5567V24.9158C157.657 25.706 158.483 26.3469 159.414 26.7967C160.5 27.305 161.694 27.5397 162.891 27.4803C164.089 27.421 165.254 27.0693 166.284 26.456C167.391 25.7715 168.297 24.8059 168.91 23.6575C169.563 22.4265 169.894 21.0497 169.871 19.6561C169.893 18.2497 169.532 16.8639 168.828 15.6465ZM166.384 22.3633C165.953 23.1438 165.325 23.797 164.562 24.2573C163.979 24.6075 163.332 24.8366 162.659 24.9308C161.986 25.025 161.301 24.9824 160.645 24.8056C159.988 24.6288 159.375 24.3213 158.84 23.9017C158.305 23.482 157.861 22.9588 157.533 22.3633C157.089 21.5334 156.865 20.6037 156.881 19.6626C156.862 18.7119 157.087 17.7721 157.533 16.9325C157.868 16.3447 158.317 15.8291 158.852 15.4154C159.388 15.0017 160 14.6981 160.653 14.5221C161.307 14.346 161.988 14.301 162.659 14.3897C163.33 14.4783 163.976 14.6988 164.562 15.0386C165.324 15.497 165.952 16.1479 166.384 16.926C166.842 17.7618 167.075 18.7028 167.058 19.6561C167.072 20.5997 166.84 21.5306 166.384 22.3568V22.3633ZM142.402 44.8941C142.402 44.8941 143.717 44.9086 144.612 44.8578C144.734 44.8606 144.839 44.947 144.839 45.0687L144.89 45.971C144.897 46.1092 144.796 46.2183 144.665 46.2329H144.643C143.093 46.3639 141.994 46.3493 141.994 46.3493C140.925 46.3493 140.015 45.4907 140.015 44.4211V42.3183C140.015 41.256 140.925 40.3902 141.994 40.3902C141.994 40.3902 143.086 40.3756 144.643 40.5066H144.686C144.817 40.5139 144.912 40.6303 144.912 40.7613L144.868 41.6344C144.861 41.7654 144.752 41.8672 144.614 41.8672C143.719 41.8163 142.402 41.8308 142.402 41.8308C141.892 41.8308 141.427 42.2019 141.427 42.704V44.021C141.427 44.523 141.892 44.8941 142.402 44.8941ZM144.612 44.8578L144.614 44.8577H144.606L144.612 44.8578ZM153.723 38.4181H152.704C152.573 38.4181 152.464 38.5272 152.464 38.6582V46.0944C152.464 46.2254 152.573 46.3345 152.704 46.3345H153.723C153.854 46.3345 153.963 46.2254 153.963 46.0944V38.6582C153.963 38.5272 153.854 38.4181 153.723 38.4181ZM155.338 38.4181H156.357C156.488 38.4181 156.597 38.5272 156.597 38.6582V46.0944C156.597 46.2254 156.488 46.3345 156.357 46.3345H155.338C155.207 46.3345 155.098 46.2254 155.098 46.0944V38.6582C155.098 38.5272 155.207 38.4181 155.338 38.4181ZM168.013 40.3972H167.57C167.286 40.3972 166.842 40.4118 166.311 40.4409C166.071 40.47 165.911 40.5791 165.678 40.8265V40.4772V38.6582C165.678 38.5272 165.569 38.4181 165.438 38.4181H164.47C164.339 38.4181 164.23 38.5272 164.23 38.6582V45.9634C164.23 46.189 164.375 46.3273 164.557 46.3273H165.329C165.46 46.3127 165.569 46.2181 165.612 46.0871L165.685 45.8325C165.983 46.109 166.347 46.2763 166.762 46.3127C167.533 46.3491 168.013 46.3418 168.013 46.3418C169.083 46.3418 170 45.4905 170 44.4282V42.3181C170 41.2558 169.09 40.3899 168.021 40.3899L168.013 40.3972ZM168.588 44.0134C168.588 44.5155 168.123 44.8866 167.613 44.8866H166.842C166.238 44.8866 165.751 44.3918 165.751 43.7952V42.4491C165.751 42.3181 165.794 42.1944 165.882 42.0998C165.991 41.9761 166.165 41.8306 166.391 41.8306H167.613C168.123 41.8306 168.588 42.2017 168.588 42.7037V44.0134ZM158.584 40.4919C160.134 40.3609 161.232 40.3755 161.232 40.3755C162.302 40.3755 163.211 41.2413 163.211 42.3036V44.4137V45.9999C163.211 46.1891 163.059 46.3419 162.869 46.3419H162.105C161.953 46.3419 161.822 46.24 161.778 46.0945L161.705 45.8471C161.414 46.1891 160.868 46.3491 160.134 46.3491H159.326C158.082 46.3491 157.485 45.7452 157.485 44.4792C157.485 43.2131 158.082 42.6311 159.326 42.6311H161.683C161.749 42.6311 161.792 42.5656 161.778 42.5074C161.676 42.0999 161.269 41.8234 160.832 41.8234C160.832 41.8234 159.515 41.8088 158.613 41.8598C158.475 41.8671 158.358 41.7652 158.358 41.6342L158.314 40.7465C158.307 40.6228 158.402 40.5064 158.533 40.4919H158.584ZM160.759 45.0394C161.189 45.0394 161.596 44.7338 161.712 44.3409C161.712 44.3409 161.763 44.1663 161.756 44.0208C161.756 43.9699 161.712 43.9262 161.662 43.9262H159.508C159.151 43.9262 158.984 44.0572 158.984 44.4137V44.5228C158.984 44.8794 159.151 45.0394 159.508 45.0394H160.759ZM149.539 40.4044H147.647C146.578 40.4044 145.704 41.2703 145.704 42.3326V44.4063C145.704 45.4759 146.57 46.3344 147.647 46.3344H149.539C150.609 46.3344 151.482 45.4686 151.482 44.4063V42.3326C151.482 41.263 150.616 40.4044 149.539 40.4044ZM150.026 44.0716C150.026 44.5518 149.633 44.9374 149.153 44.9374H148.04C147.56 44.9374 147.167 44.5518 147.167 44.0716V42.7182C147.167 42.238 147.56 41.8524 148.04 41.8524H149.153C149.633 41.8524 150.026 42.238 150.026 42.7182V44.0716ZM131.956 43.5346C131.956 42.9147 131.537 42.4432 130.934 42.4432C130.332 42.4432 129.913 42.9147 129.913 43.5346C129.913 44.1458 130.332 44.6348 130.934 44.6348C131.537 44.6348 131.956 44.1458 131.956 43.5346ZM131.179 45.6389C130.611 45.6389 130.14 45.3682 129.939 45.0277V45.5341H128.804V39.4221H129.939V41.3954C129.939 41.5534 129.932 41.7177 129.927 41.8482C129.924 41.934 129.921 42.0052 129.921 42.0503C130.113 41.7098 130.585 41.4304 131.187 41.4304C132.288 41.4304 133.126 42.3122 133.126 43.5346C133.126 44.757 132.279 45.6389 131.179 45.6389ZM134.474 46.1104C134.701 46.1104 134.841 46.023 134.919 45.796L135.007 45.5341H134.719L133.348 41.5351H134.614L135.461 44.3816L136.316 41.5351H137.548L135.95 46.1628C135.749 46.7477 135.435 47.0621 134.701 47.0621H133.915V46.1104H134.474Z" fill="black"/>
</svg>
